<svg xml:space="preserve" style="enable-background:new 0 0 37.8 21.2;" viewBox="0 0 37.8 21.2" y="0px" x="0px" xmlns:xlink="http://www.w3.org/1999/xlink" xmlns="http://www.w3.org/2000/svg" id="Layer_1" version="1.1">
<style type="text/css">
    .st0{fill:#67923D;}
</style>
<polygon points="0,0 0,3.6 0,8.8 0,12.4 0,17.6 0,21.2 4.1,21.2 17.8,21.2 17.8,17.6 4.1,17.6 4.1,12.4 17.8,12.4
    17.8,8.8 4.1,8.8 4.1,3.6 17.8,3.6 17.8,0 4.1,0 " class="st0"/>
<polygon points="19.9,0 19.9,3.6 33.6,3.6 33.6,8.8 19.9,8.8 19.9,12.4 33.6,12.4 33.6,17.6 19.9,17.6 19.9,21.2
    33.6,21.2 37.8,21.2 37.8,17.6 37.8,12.4 37.8,8.8 37.8,3.6 37.8,0 33.6,0 " class="st0"/>
</svg>